<svg id="visual" viewBox="0 0 1920 1080" width="1920" height="1080" xmlns="http://www.w3.org/2000/svg" xmlns:xlink="http://www.w3.org/1999/xlink" version="1.1"><rect x="0" y="0" width="1920" height="1080" fill="#000028"></rect><path d="M0 777L274 713L549 763L823 798L1097 679L1371 848L1646 810L1920 656L1920 1081L1646 1081L1371 1081L1097 1081L823 1081L549 1081L274 1081L0 1081Z" fill="#033fa7"></path><path d="M0 844L274 732L549 821L823 827L1097 882L1371 713L1646 825L1920 883L1920 1081L1646 1081L1371 1081L1097 1081L823 1081L549 1081L274 1081L0 1081Z" fill="#003c92"></path><path d="M0 905L274 863L549 810L823 892L1097 807L1371 806L1646 876L1920 886L1920 1081L1646 1081L1371 1081L1097 1081L823 1081L549 1081L274 1081L0 1081Z" fill="#00377c"></path><path d="M0 949L274 884L549 906L823 847L1097 960L1371 871L1646 958L1920 954L1920 1081L1646 1081L1371 1081L1097 1081L823 1081L549 1081L274 1081L0 1081Z" fill="#003266"></path><path d="M0 884L274 936L549 985L823 950L1097 987L1371 886L1646 918L1920 953L1920 1081L1646 1081L1371 1081L1097 1081L823 1081L549 1081L274 1081L0 1081Z" fill="#002b50"></path><path d="M0 986L274 1001L549 979L823 949L1097 953L1371 1014L1646 950L1920 965L1920 1081L1646 1081L1371 1081L1097 1081L823 1081L549 1081L274 1081L0 1081Z" fill="#002339"></path><path d="M0 978L274 1032L549 1009L823 978L1097 1033L1371 1029L1646 1006L1920 1021L1920 1081L1646 1081L1371 1081L1097 1081L823 1081L549 1081L274 1081L0 1081Z" fill="#001923"></path></svg>